<?xml version="1.0" encoding="UTF-8" standalone="no"?>
<!-- Created with Inkscape (http://www.inkscape.org/) -->

<svg
   width="200mm"
   height="160.44794mm"
   viewBox="0 0 200.00001 160.44793"
   version="1.1"
   id="svg5"
   inkscape:version="1.1.1 (3bf5ae0d25, 2021-09-20)"
   sodipodi:docname="breakloop.svg"
   xmlns:inkscape="http://www.inkscape.org/namespaces/inkscape"
   xmlns:sodipodi="http://sodipodi.sourceforge.net/DTD/sodipodi-0.dtd"
   xmlns="http://www.w3.org/2000/svg"
   xmlns:svg="http://www.w3.org/2000/svg">
  <sodipodi:namedview
     id="namedview7"
     pagecolor="#ffffff"
     bordercolor="#666666"
     borderopacity="1.0"
     inkscape:pageshadow="2"
     inkscape:pageopacity="0.0"
     inkscape:pagecheckerboard="0"
     inkscape:document-units="mm"
     showgrid="false"
     inkscape:zoom="0.74118967"
     inkscape:cx="375.74728"
     inkscape:cy="412.1752"
     inkscape:window-width="1920"
     inkscape:window-height="1017"
     inkscape:window-x="-8"
     inkscape:window-y="632"
     inkscape:window-maximized="1"
     inkscape:current-layer="layer1" />
  <defs
     id="defs2" />
  <g
     inkscape:label="Layer 1"
     inkscape:groupmode="layer"
     id="layer1"
     transform="translate(-47.746326,-42.955172)">
    <path
       id="path39091"
       style="color:#000000;fill:#6b7878;fill-opacity:1;stroke-width:1.33259;stroke-linejoin:bevel;-inkscape-stroke:none;paint-order:markers fill stroke"
       d="m 108.33887,54.443863 a 3.5256981,3.5256981 0 0 0 -3.60384,4.609118 l 4.24418,13.00728 H 92.511998 c -24.359682,0 -44.24788,19.886124 -44.24788,44.245809 v 31.37139 c 0,24.35971 19.888198,44.24581 44.24788,44.24581 H 202.98266 c 24.35965,0 44.24582,-19.8861 44.24582,-44.24581 v -31.37139 c 0,-24.359685 -19.88617,-44.245809 -44.24582,-44.245809 h -17.33888 v 6.91e-4 c -4.8255,3.77e-4 -8.81345,3.986477 -8.81345,8.811986 0,4.825481 3.98795,8.813685 8.81345,8.814046 v 0.0027 h 17.33888 c 14.89933,0 26.61974,11.717656 26.61974,26.617026 v 31.37139 c 0,14.89937 -11.72041,26.61979 -26.61974,26.61979 H 92.511998 c -14.899365,0 -26.619788,-11.72042 -26.619788,-26.61979 v -31.3715 c 0,-14.89936 11.720423,-26.617021 26.619788,-26.617021 h 16.466522 l -4.24349,13.005901 a 3.5256981,3.5256981 0 0 0 4.92653,4.24693 l 45.83007,-22.916799 a 3.5256981,3.5256981 0 0 0 0,-6.305671 L 109.66156,54.80658 a 3.5256981,3.5256981 0 0 0 -1.32269,-0.36218 z"
       inkscape:export-filename="C:\Users\florager\Google Drive\rect30680.png"
       inkscape:export-xdpi="96"
       inkscape:export-ydpi="96" />
    <rect
       style="fill:#1c1c1c;fill-opacity:1;stroke:none;stroke-width:19.5065;stroke-linecap:butt;stroke-linejoin:round;stroke-miterlimit:4;stroke-dasharray:none;stroke-dashoffset:0;stroke-opacity:1;paint-order:stroke markers fill"
       id="rect40469"
       width="248.01759"
       height="20.614964"
       x="-85.362854"
       y="177.71346"
       ry="10.307483"
       transform="matrix(0.78828648,-0.6153084,0.62377231,0.7816061,0,0)" />
  </g>
</svg>
