<?xml version="1.0" encoding="UTF-8"?>
<!-- Created with Inkscape (http://www.inkscape.org/) -->
<svg width="200mm" height="160.45mm" version="1.1" viewBox="0 0 200 160.45" xmlns="http://www.w3.org/2000/svg">
 <g transform="translate(-47.746 -42.955)" fill="#1c1c1c">
  <path d="m108.34 54.444a3.5257 3.5257 0 0 0-3.6038 4.6091l4.2442 13.007h-16.467c-24.36 0-44.248 19.886-44.248 44.246v31.371c0 24.36 19.888 44.246 44.248 44.246h110.47c24.36 0 44.246-19.886 44.246-44.246v-31.371c0-24.36-19.886-44.246-44.246-44.246h-17.339v6.91e-4c-4.8255 3.77e-4 -8.8134 3.9865-8.8134 8.812 0 4.8255 3.988 8.8137 8.8134 8.814v0.0027h17.339c14.899 0 26.62 11.718 26.62 26.617v31.371c0 14.899-11.72 26.62-26.62 26.62h-110.47c-14.899 0-26.62-11.72-26.62-26.62v-31.372c0-14.899 11.72-26.617 26.62-26.617h16.467l-4.2435 13.006a3.5257 3.5257 0 0 0 4.9265 4.2469l45.83-22.917a3.5257 3.5257 0 0 0 0-6.3057l-45.83-22.913a3.5257 3.5257 0 0 0-1.3227-0.36218z" color="#000000" stroke-linejoin="bevel" stroke-width="1.3326" style="-inkscape-stroke:none;paint-order:markers fill stroke"/>
  <rect transform="matrix(.78829 -.61531 .62377 .78161 0 0)" x="-85.363" y="177.71" width="248.02" height="20.615" ry="10.307" style="paint-order:stroke markers fill"/>
 </g>
</svg>
