<?xml version="1.0" encoding="UTF-8" standalone="no"?>
<!-- Created with Inkscape (http://www.inkscape.org/) -->

<svg
   width="210mm"
   height="297mm"
   viewBox="0 0 210 297"
   version="1.1"
   id="svg5"
   inkscape:version="1.1.1 (3bf5ae0d25, 2021-09-20)"
   sodipodi:docname="breakloop.svg"
   xmlns:inkscape="http://www.inkscape.org/namespaces/inkscape"
   xmlns:sodipodi="http://sodipodi.sourceforge.net/DTD/sodipodi-0.dtd"
   xmlns="http://www.w3.org/2000/svg"
   xmlns:svg="http://www.w3.org/2000/svg">
  <sodipodi:namedview
     id="namedview7"
     pagecolor="#ffffff"
     bordercolor="#666666"
     borderopacity="1.0"
     inkscape:pageshadow="2"
     inkscape:pageopacity="0.0"
     inkscape:pagecheckerboard="0"
     inkscape:document-units="mm"
     showgrid="false"
     inkscape:zoom="0.74118967"
     inkscape:cx="397.33419"
     inkscape:cy="561.25984"
     inkscape:window-width="1284"
     inkscape:window-height="1040"
     inkscape:window-x="1807"
     inkscape:window-y="852"
     inkscape:window-maximized="0"
     inkscape:current-layer="layer1" />
  <defs
     id="defs2" />
  <g
     inkscape:label="Layer 1"
     inkscape:groupmode="layer"
     id="layer1">
    <path
       id="path39091"
       style="color:#000000;fill:#6b7878;fill-opacity:1;stroke-width:1;stroke-linejoin:bevel;-inkscape-stroke:none;paint-order:markers fill stroke"
       d="m 93.222114,51.577643 a 2.6460995,2.6460995 0 0 0 -2.70475,3.45922 l 3.18534,9.7622 h -12.35894 c -18.28238,0 -33.20883,14.92489 -33.20883,33.20727 v 23.544817 c 0,18.28238 14.92645,33.20727 33.20883,33.20727 h 82.910186 c 18.28238,0 33.20727,-14.92489 33.20727,-33.20727 V 98.006333 c 0,-18.28238 -14.92489,-33.20727 -33.20727,-33.20727 h -13.01316 v 5.2e-4 c -3.62156,2.8e-4 -6.61459,2.99192 -6.61459,6.61355 0,3.62161 2.99303,6.61483 6.61459,6.6151 v 0.002 h 13.01316 c 11.18224,0 19.97862,8.79431 19.97862,19.97655 v 23.544767 c 0,11.18224 -8.79638,19.97862 -19.97862,19.97862 H 81.343764 c -11.18224,0 -19.97863,-8.79638 -19.97863,-19.97862 V 98.006733 c 0,-11.18224 8.79639,-19.97655 19.97863,-19.97655 h 12.35842 l -3.18482,9.76116 a 2.6460995,2.6460995 0 0 0 3.69745,3.1874 l 34.396346,-17.19947 a 2.6460995,2.6460995 0 0 0 0,-4.73252 L 94.214814,51.849863 a 2.6460995,2.6460995 0 0 0 -0.9927,-0.27182 z"
       inkscape:export-filename="C:\Users\florager\Google Drive\rect30680.png"
       inkscape:export-xdpi="96"
       inkscape:export-ydpi="96" />
    <rect
       style="fill:#1c1c1c;fill-opacity:1;stroke:none;stroke-width:14.6384;stroke-linecap:butt;stroke-linejoin:round;stroke-miterlimit:4;stroke-dasharray:none;stroke-dashoffset:0;stroke-opacity:1;paint-order:stroke markers fill"
       id="rect40469"
       width="186.1416"
       height="15.471899"
       x="-61.440495"
       y="149.15517"
       ry="7.7359495"
       transform="matrix(0.78828648,-0.6153084,0.62377231,0.7816061,0,0)" />
  </g>
</svg>
