<?xml version="1.0" encoding="UTF-8" standalone="no"?>
<!-- Created with Inkscape (http://www.inkscape.org/) -->

<svg
   width="149.32629mm"
   height="103.18752mm"
   viewBox="0 0 149.32629 103.18752"
   version="1.1"
   id="svg5"
   inkscape:version="1.1.1 (3bf5ae0d25, 2021-09-20)"
   sodipodi:docname="inactiveloop.svg"
   xmlns:inkscape="http://www.inkscape.org/namespaces/inkscape"
   xmlns:sodipodi="http://sodipodi.sourceforge.net/DTD/sodipodi-0.dtd"
   xmlns="http://www.w3.org/2000/svg"
   xmlns:svg="http://www.w3.org/2000/svg">
  <sodipodi:namedview
     id="namedview7"
     pagecolor="#ffffff"
     bordercolor="#666666"
     borderopacity="1.0"
     inkscape:pageshadow="2"
     inkscape:pageopacity="0.0"
     inkscape:pagecheckerboard="0"
     inkscape:document-units="mm"
     showgrid="false"
     inkscape:zoom="0.74118967"
     inkscape:cx="47.895972"
     inkscape:cy="476.26136"
     inkscape:window-width="1284"
     inkscape:window-height="1040"
     inkscape:window-x="350"
     inkscape:window-y="735"
     inkscape:window-maximized="0"
     inkscape:current-layer="layer1" />
  <defs
     id="defs2" />
  <g
     inkscape:label="Layer 1"
     inkscape:groupmode="layer"
     id="layer1"
     transform="translate(-22.076037,-22.656235)">
    <path
       id="path41616"
       style="color:#000000;fill:#6b7878;fill-opacity:1;stroke-width:1;stroke-linejoin:bevel;-inkscape-stroke:none;paint-order:markers fill stroke"
       d="m 67.163217,22.662984 a 2.6460995,2.6460995 0 0 0 -2.70475,3.45922 l 3.18534,9.7622 h -12.35894 c -18.28238,0 -33.20883,14.92489 -33.20883,33.20727 v 23.54482 c 0,18.282376 14.92645,33.207266 33.20883,33.207266 h 82.910193 c 18.28238,0 33.20727,-14.92489 33.20727,-33.207266 v -23.54482 c 0,-18.28238 -14.92489,-33.20727 -33.20727,-33.20727 H 125.1819 v 5.2e-4 c -3.62156,2.8e-4 -6.61459,2.99192 -6.61459,6.61355 0,3.62161 2.99303,6.61483 6.61459,6.6151 v 0.002 h 13.01316 c 11.18224,0 19.97862,8.79431 19.97862,19.97655 v 23.54477 c 0,11.182236 -8.79638,19.978616 -19.97862,19.978616 H 55.284867 c -11.18224,0 -19.97863,-8.79638 -19.97863,-19.978616 v -23.54482 c 0,-11.18224 8.79639,-19.97655 19.97863,-19.97655 h 12.35842 l -3.18482,9.76116 a 2.6460995,2.6460995 0 0 0 3.69745,3.1874 l 34.396353,-17.19947 a 2.6460995,2.6460995 0 0 0 0,-4.73252 L 68.155917,22.935204 a 2.6460995,2.6460995 0 0 0 -0.9927,-0.27182 z"
       inkscape:export-filename="C:\Users\florager\Google Drive\rect30680.png"
       inkscape:export-xdpi="96"
       inkscape:export-ydpi="96" />
  </g>
</svg>
