<?xml version="1.0" encoding="UTF-8" standalone="no"?>
<!-- Created with Inkscape (http://www.inkscape.org/) -->

<svg
   width="200mm"
   height="138.29698mm"
   viewBox="0 0 199.99999 138.29698"
   version="1.1"
   id="svg5"
   inkscape:version="1.1.1 (3bf5ae0d25, 2021-09-20)"
   sodipodi:docname="inactiveloop.svg"
   xmlns:inkscape="http://www.inkscape.org/namespaces/inkscape"
   xmlns:sodipodi="http://sodipodi.sourceforge.net/DTD/sodipodi-0.dtd"
   xmlns="http://www.w3.org/2000/svg"
   xmlns:svg="http://www.w3.org/2000/svg">
  <sodipodi:namedview
     id="namedview7"
     pagecolor="#ffffff"
     bordercolor="#666666"
     borderopacity="1.0"
     inkscape:pageshadow="2"
     inkscape:pageopacity="0.0"
     inkscape:pagecheckerboard="0"
     inkscape:document-units="mm"
     showgrid="false"
     inkscape:zoom="0.74118967"
     inkscape:cx="374.39809"
     inkscape:cy="361.58086"
     inkscape:window-width="1284"
     inkscape:window-height="1040"
     inkscape:window-x="350"
     inkscape:window-y="640"
     inkscape:window-maximized="0"
     inkscape:current-layer="layer1" />
  <defs
     id="defs2" />
  <g
     inkscape:label="Layer 1"
     inkscape:groupmode="layer"
     id="layer1"
     transform="translate(-22.076037,-22.656235)">
    <path
       id="path41616"
       style="color:#000000;fill:#6b7878;fill-opacity:1;stroke-width:1.3398;stroke-linejoin:bevel;-inkscape-stroke:none;paint-order:markers fill stroke"
       d="m 82.463499,22.66528 a 3.5440503,3.5464322 0 0 0 -3.622604,4.636216 l 4.266281,13.083779 H 66.554245 c -24.486484,0 -44.478208,20.003069 -44.478208,44.50601 v 31.555925 c 0,24.50293 19.991724,44.506 44.478208,44.506 H 177.59991 c 24.48649,0 44.47613,-20.00307 44.47613,-44.506 V 84.891285 c 0,-24.502941 -19.98964,-44.50601 -44.47613,-44.50601 h -17.42916 v 6.97e-4 c -4.85053,3.75e-4 -8.85924,4.009918 -8.85924,8.863804 0,4.853859 4.00871,8.865519 8.85924,8.865881 v 0.0027 h 17.42916 c 14.97693,0 26.75834,11.786566 26.75834,26.773551 v 31.555852 c 0,14.98698 -11.78141,26.77632 -26.75834,26.77632 H 66.554245 c -14.976921,0 -26.758355,-11.78934 -26.758355,-26.77632 V 84.891821 c 0,-14.986985 11.781434,-26.773551 26.758355,-26.773551 H 83.10648 l -4.265585,13.082385 a 3.5440503,3.5464322 0 0 0 4.952175,4.27191 l 46.06872,-23.051572 a 3.5440503,3.5464322 0 0 0 0,-6.342756 L 83.79307,23.030123 a 3.5440503,3.5464322 0 0 0 -1.329571,-0.364307 z"
       inkscape:export-filename="C:\Users\florager\Google Drive\rect30680.png"
       inkscape:export-xdpi="96"
       inkscape:export-ydpi="96" />
  </g>
</svg>
