<?xml version="1.0" encoding="UTF-8" standalone="no"?>
<!-- Created with Inkscape (http://www.inkscape.org/) -->

<svg
   width="793.70081"
   height="1122.5197"
   viewBox="0 0 210 297"
   version="1.1"
   id="svg5"
   inkscape:version="1.1.1 (3bf5ae0d25, 2021-09-20)"
   sodipodi:docname="InkscapeProj.svg"
   xmlns:inkscape="http://www.inkscape.org/namespaces/inkscape"
   xmlns:sodipodi="http://sodipodi.sourceforge.net/DTD/sodipodi-0.dtd"
   xmlns:xlink="http://www.w3.org/1999/xlink"
   xmlns="http://www.w3.org/2000/svg"
   xmlns:svg="http://www.w3.org/2000/svg">
  <sodipodi:namedview
     id="namedview7"
     pagecolor="#ffffff"
     bordercolor="#666666"
     borderopacity="1.0"
     inkscape:pageshadow="2"
     inkscape:pageopacity="0.0"
     inkscape:pagecheckerboard="0"
     inkscape:document-units="mm"
     showgrid="true"
     inkscape:zoom="0.35355339"
     inkscape:cx="-1115.8145"
     inkscape:cy="-832.97179"
     inkscape:window-width="1920"
     inkscape:window-height="1017"
     inkscape:window-x="-8"
     inkscape:window-y="632"
     inkscape:window-maximized="1"
     inkscape:current-layer="layer1"
     units="px"
     showborder="false"
     inkscape:snap-global="true"
     inkscape:snap-smooth-nodes="true"
     inkscape:snap-bbox="true"
     inkscape:snap-object-midpoints="false"
     inkscape:snap-grids="true"
     inkscape:snap-center="true">
    <inkscape:grid
       type="xygrid"
       id="grid195" />
  </sodipodi:namedview>
  <defs
     id="defs2">
    <linearGradient
       inkscape:collect="always"
       id="linearGradient3395">
      <stop
         style="stop-color:#3e3e3e;stop-opacity:1;"
         offset="0"
         id="stop3391" />
      <stop
         style="stop-color:#3e3e3e;stop-opacity:0;"
         offset="1"
         id="stop3393" />
    </linearGradient>
    <marker
       style="overflow:visible;"
       id="Arrow2Send"
       refX="0.0"
       refY="0.0"
       orient="auto"
       inkscape:stockid="Arrow2Send"
       inkscape:isstock="true">
      <path
         transform="scale(0.3) rotate(180) translate(-2.3,0)"
         d="M 8.7185878,4.0337352 L -2.2072895,0.016013256 L 8.7185884,-4.0017078 C 6.9730900,-1.6296469 6.9831476,1.6157441 8.7185878,4.0337352 z "
         style="stroke:context-stroke;fill-rule:evenodd;fill:context-stroke;stroke-width:0.62500000;stroke-linejoin:round;"
         id="path1269" />
    </marker>
    <marker
       style="overflow:visible;"
       id="marker31300"
       refX="0.0"
       refY="0.0"
       orient="auto"
       inkscape:stockid="Arrow1Lend"
       inkscape:isstock="true">
      <path
         transform="scale(0.8) rotate(180) translate(12.5,0)"
         style="fill-rule:evenodd;fill:context-stroke;stroke:context-stroke;stroke-width:1.0pt;"
         d="M 0.0,0.0 L 5.0,-5.0 L -12.5,0.0 L 5.0,5.0 L 0.0,0.0 z "
         id="path31298" />
    </marker>
    <marker
       style="overflow:visible"
       id="Arrow1Mstart"
       refX="0.0"
       refY="0.0"
       orient="auto"
       inkscape:stockid="Arrow1Mstart"
       inkscape:isstock="true">
      <path
         transform="scale(0.4) translate(10,0)"
         style="fill-rule:evenodd;fill:context-stroke;stroke:context-stroke;stroke-width:1.0pt"
         d="M 0.0,0.0 L 5.0,-5.0 L -12.5,0.0 L 5.0,5.0 L 0.0,0.0 z "
         id="path22016" />
    </marker>
    <marker
       style="overflow:visible;"
       id="Arrow1Send"
       refX="0.0"
       refY="0.0"
       orient="auto"
       inkscape:stockid="Arrow1Send"
       inkscape:isstock="true">
      <path
         transform="scale(0.2) rotate(180) translate(6,0)"
         style="fill-rule:evenodd;fill:context-stroke;stroke:context-stroke;stroke-width:1.0pt;"
         d="M 0.0,0.0 L 5.0,-5.0 L -12.5,0.0 L 5.0,5.0 L 0.0,0.0 z "
         id="path22025" />
    </marker>
    <marker
       style="overflow:visible;"
       id="Arrow1Mend"
       refX="0.0"
       refY="0.0"
       orient="auto"
       inkscape:stockid="Arrow1Mend"
       inkscape:isstock="true">
      <path
         transform="scale(0.4) rotate(180) translate(10,0)"
         style="fill-rule:evenodd;fill:context-stroke;stroke:context-stroke;stroke-width:1.0pt;"
         d="M 0.0,0.0 L 5.0,-5.0 L -12.5,0.0 L 5.0,5.0 L 0.0,0.0 z "
         id="path22019" />
    </marker>
    <marker
       style="overflow:visible;"
       id="Arrow1Lend"
       refX="0.0"
       refY="0.0"
       orient="auto"
       inkscape:stockid="Arrow1Lend"
       inkscape:isstock="true">
      <path
         transform="scale(0.8) rotate(180) translate(12.5,0)"
         style="fill-rule:evenodd;fill:context-stroke;stroke:context-stroke;stroke-width:1.0pt;"
         d="M 0.0,0.0 L 5.0,-5.0 L -12.5,0.0 L 5.0,5.0 L 0.0,0.0 z "
         id="path22013" />
    </marker>
    <linearGradient
       id="linearGradient24502"
       inkscape:swatch="solid">
      <stop
         style="stop-color:#5fd38d;stop-opacity:1;"
         offset="0"
         id="stop24500" />
    </linearGradient>
    <marker
       style="overflow:visible"
       id="Arrow2Lstart"
       refX="0.0"
       refY="0.0"
       orient="auto"
       inkscape:stockid="Arrow2Lstart"
       inkscape:isstock="true">
      <path
         transform="scale(1.1) translate(1,0)"
         d="M 8.7185878,4.0337352 L -2.2072895,0.016013256 L 8.7185884,-4.0017078 C 6.9730900,-1.6296469 6.9831476,1.6157441 8.7185878,4.0337352 z "
         style="stroke:context-stroke;fill-rule:evenodd;fill:context-stroke;stroke-width:0.62500000;stroke-linejoin:round"
         id="path22028" />
    </marker>
    <linearGradient
       inkscape:collect="always"
       xlink:href="#linearGradient3395"
       id="linearGradient3397"
       x1="-337.08751"
       y1="-317.5"
       x2="-149.74583"
       y2="-317.5"
       gradientUnits="userSpaceOnUse"
       gradientTransform="matrix(1.6013523,-1.3373264e-8,1.8901325e-8,1.6013526,733.80276,195.22703)" />
  </defs>
  <g
     inkscape:label="Layer 1"
     inkscape:groupmode="layer"
     id="layer1">
    <path
       id="rect30680"
       style="color:#000000;opacity:1;fill:#1c1c1c;fill-opacity:1;stroke-width:1;stroke-linejoin:bevel;paint-order:markers fill stroke;stroke-miterlimit:4;stroke-dasharray:none"
       d="m 385.23954,-281.64057 a 2.6460995,2.6460995 0 0 0 -2.70475,3.45922 l 3.18534,9.76219 h -12.35894 c -18.28238,0 -33.20883,14.9249 -33.20883,33.20728 v 23.54481 c 0,18.28239 14.92645,33.20728 33.20883,33.20728 h 82.91019 c 18.28238,0 33.20727,-14.92489 33.20727,-33.20728 v -23.54481 c 0,-18.28238 -14.92489,-33.20728 -33.20727,-33.20728 h -13.01316 v 5.2e-4 c -3.62156,2.9e-4 -6.61459,2.99193 -6.61459,6.61355 0,3.62162 2.99303,6.61484 6.61459,6.6151 v 0.002 h 13.01316 c 11.18224,0 19.97862,8.79432 19.97862,19.97656 v 23.54476 c 0,11.18224 -8.79638,19.97863 -19.97862,19.97863 h -82.91019 c -11.18224,0 -19.97863,-8.79639 -19.97863,-19.97863 v -23.54481 c 0,-11.18224 8.79639,-19.97656 19.97863,-19.97656 h 12.35842 l -3.18482,9.76116 a 2.6460995,2.6460995 0 0 0 3.69745,3.1874 l 34.39635,-17.19946 a 2.6460995,2.6460995 0 0 0 0,-4.73253 l -34.39635,-17.19688 a 2.6460995,2.6460995 0 0 0 -0.9927,-0.27182 z"
       inkscape:export-filename="C:\Users\florager\Google Drive\rect30680.png"
       inkscape:export-xdpi="96"
       inkscape:export-ydpi="96" />
    <g
       id="rect34001"
       style="opacity:0.544872"
       transform="translate(-9.2604145,44.979682)" />
    <g
       id="path34175"
       style="opacity:0.544872" />
    <g
       id="path34199"
       style="opacity:0.544872" />
    <g
       id="g35340"
       style="opacity:0.544872"
       transform="translate(-318.16133,10.584032)">
      <path
         id="path35338"
         style="color:#000000;fill:#000000;stroke-width:3.77953;stroke-linejoin:round;-inkscape-stroke:none;paint-order:stroke markers fill"
         d="m 465.7207,-354.97656 a 10.001006,10.001006 0 0 0 -10.22851,13.07617 l 20.20508,61.89844 -20.20508,61.89648 a 10.001006,10.001006 0 0 0 13.98047,12.04688 L 535,-238.82031 V -210 h 135 v -45 c -13.68777,-0.001 -25,-11.31395 -25,-25.00195 0,-13.68802 11.31223,-24.99502 25,-24.9961 V -350 H 535 v 28.82031 l -65.52734,-32.76758 a 10.001006,10.001006 0 0 0 -3.75196,-1.02929 z"
         transform="scale(0.26458333)" />
    </g>
    <path
       id="path39091"
       style="color:#000000;opacity:1;fill:#6b7878;fill-opacity:1;stroke-width:1;stroke-linejoin:bevel;-inkscape-stroke:none;paint-order:markers fill stroke"
       d="m 215.90626,-141.41198 a 2.6460995,2.6460995 0 0 0 -2.70475,3.45922 l 3.18534,9.7622 h -12.35894 c -18.28238,0 -33.20883,14.92489 -33.20883,33.207267 v 23.54482 c 0,18.28238 14.92645,33.20727 33.20883,33.20727 h 82.91019 c 18.28238,0 33.20727,-14.92489 33.20727,-33.20727 v -23.54482 c 0,-18.282377 -14.92489,-33.207267 -33.20727,-33.207267 h -13.01316 v 5.2e-4 c -3.62156,2.8e-4 -6.61459,2.99192 -6.61459,6.61355 0,3.62161 2.99303,6.61483 6.61459,6.6151 v 0.002 h 13.01316 c 11.18224,0 19.97862,8.79431 19.97862,19.976547 v 23.54477 c 0,11.18224 -8.79638,19.97862 -19.97862,19.97862 h -82.91019 c -11.18224,0 -19.97863,-8.79638 -19.97863,-19.97862 v -23.54482 c 0,-11.182237 8.79639,-19.976547 19.97863,-19.976547 h 12.35842 l -3.18482,9.76116 a 2.6460995,2.6460995 0 0 0 3.69745,3.1874 l 34.39635,-17.19947 a 2.6460995,2.6460995 0 0 0 0,-4.73252 l -34.39635,-17.19689 a 2.6460995,2.6460995 0 0 0 -0.9927,-0.27182 z"
       inkscape:export-filename="C:\Users\florager\Google Drive\rect30680.png"
       inkscape:export-xdpi="96"
       inkscape:export-ydpi="96" />
    <rect
       style="opacity:1;fill:#1c1c1c;fill-opacity:1;stroke:none;stroke-width:14.6384;stroke-linecap:butt;stroke-linejoin:round;stroke-miterlimit:4;stroke-dasharray:none;stroke-dashoffset:0;stroke-opacity:1;paint-order:stroke markers fill"
       id="rect40469"
       width="186.1416"
       height="15.471899"
       x="154.84435"
       y="72.508186"
       ry="7.7359495"
       transform="matrix(0.78828648,-0.6153084,0.62377231,0.7816061,0,0)" />
    <circle
       style="opacity:1;fill:#666666;fill-opacity:1;stroke:none;stroke-width:11.5146;stroke-linecap:butt;stroke-linejoin:round;stroke-miterlimit:4;stroke-dasharray:none;stroke-dashoffset:0;stroke-opacity:1;paint-order:stroke markers fill"
       id="circle40936"
       cx="-121.70834"
       cy="6.614584"
       r="6.6145835" />
    <path
       id="path41616"
       style="color:#000000;opacity:1;fill:#6b7878;fill-opacity:1;stroke-width:1;stroke-linejoin:bevel;-inkscape-stroke:none;paint-order:markers fill stroke"
       d="m 214.71816,-280.45253 a 2.6460995,2.6460995 0 0 0 -2.70475,3.45922 l 3.18534,9.7622 h -12.35894 c -18.28238,0 -33.20883,14.92489 -33.20883,33.20727 v 23.54482 c 0,18.28238 14.92645,33.20727 33.20883,33.20727 H 285.75 c 18.28238,0 33.20727,-14.92489 33.20727,-33.20727 v -23.54482 c 0,-18.28238 -14.92489,-33.20727 -33.20727,-33.20727 h -13.01316 v 5.2e-4 c -3.62156,2.8e-4 -6.61459,2.99192 -6.61459,6.61355 0,3.62161 2.99303,6.61483 6.61459,6.6151 v 0.002 H 285.75 c 11.18224,0 19.97862,8.79431 19.97862,19.97655 v 23.54477 c 0,11.18224 -8.79638,19.97862 -19.97862,19.97862 h -82.91019 c -11.18224,0 -19.97863,-8.79638 -19.97863,-19.97862 v -23.54482 c 0,-11.18224 8.79639,-19.97655 19.97863,-19.97655 h 12.35842 l -3.18482,9.76116 a 2.6460995,2.6460995 0 0 0 3.69745,3.1874 l 34.39635,-17.19947 a 2.6460995,2.6460995 0 0 0 0,-4.73252 l -34.39635,-17.19689 a 2.6460995,2.6460995 0 0 0 -0.9927,-0.27182 z"
       inkscape:export-filename="C:\Users\florager\Google Drive\rect30680.png"
       inkscape:export-xdpi="96"
       inkscape:export-ydpi="96" />
    <path
       id="path41646"
       style="color:#000000;opacity:1;fill:#1c1c1c;fill-opacity:1;stroke-width:1;stroke-linejoin:bevel;-inkscape-stroke:none;paint-order:markers fill stroke"
       d="m 402.05975,-27.654643 a 2.6460995,2.6460995 0 0 0 2.70475,-3.45922 l -3.18534,-9.76219 h 12.35894 c 18.28238,0 33.20882,-14.9249 33.20882,-33.20728 v -23.54481 c 0,-18.282377 -14.92644,-33.207287 -33.20882,-33.207287 h -41.44037 a 6.6145835,6.6145835 0 0 0 -0.014,-5.1e-4 6.6145835,6.6145835 0 0 0 -6.61458,6.61458 6.6145835,6.6145835 0 0 0 6.61458,6.61459 h 41.45432 c 11.18224,0 19.97862,8.79639 19.97862,19.978627 v 23.54481 c 0,11.18224 -8.79638,19.97656 -19.97862,19.97656 h -12.35842 l 3.18482,-9.76116 a 2.6460995,2.6460995 0 0 0 -3.69745,-3.1874 l -34.39635,17.19946 a 2.6460995,2.6460995 0 0 0 0,4.73253 l 34.39635,17.19688 a 2.6460995,2.6460995 0 0 0 0.9927,0.27182 z" />
    <path
       id="path40739"
       style="color:#000000;opacity:1;fill:#1c1c1c;fill-opacity:1;stroke-width:1.00502;stroke-linejoin:bevel;-inkscape-stroke:none;paint-order:markers fill stroke"
       d="m 214.71969,-280.45213 a 2.6727267,2.6460995 0 0 0 -2.73197,3.45922 l 3.2174,9.76219 h -12.4833 c -18.46636,0 -33.543,14.9249 -33.543,33.20728 v 23.54481 c 0,18.28239 15.07664,33.20728 33.543,33.20728 h 41.85737 a 6.6811448,6.6145835 0 0 0 0.014,5.2e-4 6.6811448,6.6145835 0 0 0 6.68114,-6.61459 6.6811448,6.6145835 0 0 0 -6.68114,-6.61458 h -41.87141 c -11.29477,0 -20.17966,-8.79639 -20.17966,-19.97863 v -23.54481 c 0,-11.18224 8.88489,-19.97656 20.17966,-19.97656 h 12.48277 l -3.21687,9.76116 a 2.6727267,2.6460995 0 0 0 3.73466,3.1874 l 34.74247,-17.19946 a 2.6727267,2.6460995 0 0 0 0,-4.73253 l -34.74247,-17.19688 a 2.6727267,2.6460995 0 0 0 -1.00269,-0.27182 z" />
    <path
       id="path41704"
       style="color:#000000;opacity:1;fill:#1c1c1c;fill-opacity:1;stroke-width:1.00502;stroke-linejoin:bevel;-inkscape-stroke:none;paint-order:markers fill stroke"
       d="m 87.269297,-144.05684 a 2.6727267,2.6460995 0 0 0 -2.73197,3.45922 l 3.2174,9.7622 h -12.4833 c -18.46636,0 -33.543,14.9249 -33.543,33.207277 v 23.54482 c 0,18.28238 15.07664,33.20727 33.543,33.20727 H 117.1288 a 6.6811448,6.6145835 0 0 0 0.014,5.2e-4 6.6811448,6.6145835 0 0 0 6.68114,-6.61458 6.6811448,6.6145835 0 0 0 -6.68114,-6.61459 H 75.271387 c -11.29477,0 -20.17966,-8.79638 -20.17966,-19.97862 v -23.54482 c 0,-11.182237 8.88489,-19.976557 20.17966,-19.976557 h 12.48277 l -3.21687,9.76116 a 2.6727267,2.6460995 0 0 0 3.73466,3.18741 l 34.742473,-17.19948 a 2.6727267,2.6460995 0 0 0 0,-4.73253 l -34.742473,-17.19688 a 2.6727267,2.6460995 0 0 0 -1.00269,-0.27182 z" />
    <path
       id="path41616-3"
       style="color:#000000;fill:#6b7878;fill-opacity:1;stroke-width:1;stroke-linejoin:bevel;-inkscape-stroke:none;paint-order:markers fill stroke"
       d="m 33.045017,-280.45253 a 2.6460995,2.6460995 0 0 0 -2.70475,3.45922 l 3.18534,9.7622 h -12.35894 c -18.2823803,0 -33.20883,14.92489 -33.20883,33.20727 v 23.54482 c 0,18.28238 14.9264497,33.20727 33.20883,33.20727 h 82.910193 c 18.28238,0 33.20727,-14.92489 33.20727,-33.20727 v -23.54482 c 0,-18.28238 -14.92489,-33.20727 -33.20727,-33.20727 H 91.063697 v 5.2e-4 c -3.62156,2.8e-4 -6.61459,2.99192 -6.61459,6.61355 0,3.62161 2.99303,6.61483 6.61459,6.6151 v 0.002 h 13.013163 c 11.18224,0 19.97862,8.79431 19.97862,19.97655 v 23.54477 c 0,11.18224 -8.79638,19.97862 -19.97862,19.97862 H 21.166667 c -11.1822403,0 -19.9786303,-8.79638 -19.9786303,-19.97862 v -23.54482 c 0,-11.18224 8.79639,-19.97655 19.9786303,-19.97655 h 12.35842 l -3.18482,9.76116 a 2.6460995,2.6460995 0 0 0 3.69745,3.1874 l 34.39635,-17.19947 a 2.6460995,2.6460995 0 0 0 0,-4.73252 l -34.39635,-17.19689 a 2.6460995,2.6460995 0 0 0 -0.9927,-0.27182 z"
       inkscape:export-filename="C:\Users\florager\Google Drive\rect30680.png"
       inkscape:export-xdpi="96"
       inkscape:export-ydpi="96" />
    <g
       id="rect57"
       transform="matrix(0.84848929,0,0,0.84849262,37.011029,-218.3267)"
       style="fill:#1c1c1c;fill-opacity:1">
      <path
         id="path1262"
         style="color:#000000;fill:#1c1c1c;fill-opacity:1;fill-rule:evenodd;stroke-width:25;stroke-linejoin:round;-inkscape-stroke:none"
         d="m 162.27205,-579.90317 a 12.50125,12.50125 0 0 0 -2.09858,0.2744 12.50125,12.50125 0 0 0 -9.8397,12.21269 v 74.50037 65.49988 a 12.50125,12.50125 0 0 0 18.08985,11.17968 l 140.00023,-69.99986 a 12.50125,12.50125 0 0 0 0,-22.36145 l -140.00023,-70.00036 a 12.50125,12.50125 0 0 0 -6.15157,-1.30535 z" />
    </g>
    <rect
       style="fill:#1c1c1c;stroke:#1c1c1c;stroke-width:23.4653;stroke-linejoin:round;stroke-miterlimit:4;stroke-dasharray:none;stroke-opacity:1"
       id="rect1922"
       width="11.697682"
       height="126.53468"
       x="285.71878"
       y="-514.62103"
       ry="9.3740947e-14" />
    <rect
       style="fill:#1c1c1c;stroke:#1c1c1c;stroke-width:23.4653;stroke-linejoin:round;stroke-miterlimit:4;stroke-dasharray:none;stroke-opacity:1"
       id="rect1613"
       width="11.697682"
       height="126.53468"
       x="164.01045"
       y="-514.62103"
       ry="9.3740947e-14" />
    <path
       style="fill:none;stroke:#000000;stroke-width:14.99999991;stroke-linecap:round;stroke-linejoin:round;stroke-miterlimit:4;stroke-dasharray:none;stroke-opacity:1"
       d="m 407.32283,-692.25256 95.91146,55.69052 -95.91146,55.69053"
       id="path2041"
       sodipodi:nodetypes="ccc" />
    <path
       style="fill:none;stroke:#000000;stroke-width:15;stroke-linecap:round;stroke-linejoin:round;stroke-miterlimit:4;stroke-dasharray:none;stroke-opacity:1"
       d="m 407.65356,-660.63059 42.33333,24.06855 -42.33333,23.8125"
       id="path2294"
       sodipodi:nodetypes="ccc" />
    <path
       style="fill:none;stroke:#000000;stroke-width:15;stroke-linecap:round;stroke-linejoin:round;stroke-miterlimit:4;stroke-dasharray:none;stroke-opacity:1"
       d="m 59.065023,-692.12453 -95.911457,55.69052 95.911467,55.69054"
       id="path2658"
       sodipodi:nodetypes="ccc" />
    <path
       style="fill:none;stroke:#000000;stroke-width:15;stroke-linecap:round;stroke-linejoin:round;stroke-miterlimit:4;stroke-dasharray:none;stroke-opacity:1"
       d="m 58.734293,-660.50256 -42.33334,24.06855 42.33334,23.8125"
       id="path2660"
       sodipodi:nodetypes="ccc" />
    <path
       id="path1100"
       style="color:#000000;fill:#1c1c1c;stroke-width:3.77953;stroke-linecap:round;stroke-linejoin:round;-inkscape-stroke:none"
       d="M 2584.9297 -1595.0117 C 2584.7118 -1595.0094 2584.4928 -1595.0014 2584.2715 -1594.9863 C 2582.9657 -1594.8927 2581.6908 -1594.5437 2580.5195 -1593.959 L 2450.5176 -1528.9629 C 2443.1512 -1525.276 2443.1512 -1514.7631 2450.5176 -1511.0762 L 2580.5195 -1446.0703 C 2588.4593 -1442.1081 2597.243 -1449.6802 2594.4941 -1458.1172 L 2583.3555 -1492.2539 C 2681.4396 -1463.2346 2749.1855 -1373.2139 2749.1855 -1270.1211 C 2749.1856 -1141.8614 2645.7715 -1038.4472 2517.5117 -1038.4473 C 2389.2519 -1038.4472 2285.832 -1141.8614 2285.832 -1270.1211 C 2285.8321 -1323.0762 2303.9659 -1374.4248 2337.2246 -1415.6328 A 25.892409 25.892409 0 0 0 2333.334 -1452.0391 A 25.892409 25.892409 0 0 0 2296.9258 -1448.1562 C 2256.2398 -1397.7458 2234.0411 -1334.902 2234.041 -1270.1211 C 2234.041 -1113.8748 2361.2653 -986.65625 2517.5117 -986.65625 C 2673.7581 -986.65625 2800.9766 -1113.8748 2800.9766 -1270.1211 C 2800.9765 -1400.0516 2712.3297 -1513.5938 2586.2812 -1545.1172 A 25.892409 25.892409 0 0 0 2582.6484 -1545.6035 L 2594.4961 -1581.916 C 2596.5587 -1588.2454 2591.9948 -1594.6444 2585.5801 -1595.002 L 2585.5781 -1594.9961 C 2585.3643 -1595.0093 2585.1476 -1595.0141 2584.9297 -1595.0117 z "
       transform="scale(0.26458333)" />
    <path
       style="fill:none;stroke:#1c1c1c;stroke-width:15;stroke-linecap:round;stroke-linejoin:miter;stroke-miterlimit:4;stroke-dasharray:none;stroke-opacity:1"
       d="m 620.79706,-687.91667 h 91.90588"
       id="path936" />
    <path
       style="fill:none;stroke:#1c1c1c;stroke-width:15;stroke-linecap:round;stroke-linejoin:miter;stroke-miterlimit:4;stroke-dasharray:none;stroke-opacity:1"
       d="m 666.75,-733.391 v 90.94866"
       id="path938" />
    <path
       id="rect30680-8-3"
       style="color:#000000;fill:#1c1c1c;fill-opacity:1;stroke-width:1;stroke-linejoin:bevel;stroke-miterlimit:4;stroke-dasharray:none;paint-order:markers fill stroke"
       d="m -429.67713,-747.30723 a 2.6460995,2.6460995 0 0 0 -2.70475,3.45922 l 3.18534,9.76219 h -12.35894 c -18.28238,0 -33.20883,14.9249 -33.20883,33.20728 v 23.54481 c 0,18.28239 14.92645,33.20728 33.20883,33.20728 h 82.91019 c 18.28238,0 33.20727,-14.92489 33.20727,-33.20728 v -23.54481 c 0,-18.28238 -14.92489,-33.20728 -33.20727,-33.20728 h -13.01316 v 5.2e-4 c -3.62156,2.9e-4 -6.61459,2.99193 -6.61459,6.61355 0,3.62162 2.99303,6.61484 6.61459,6.6151 v 0.002 h 13.01316 c 11.18224,0 19.97862,8.79432 19.97862,19.97656 v 23.54476 c 0,11.18224 -8.79638,19.97863 -19.97862,19.97863 h -82.91019 c -11.18224,0 -19.97863,-8.79639 -19.97863,-19.97863 v -23.54481 c 0,-11.18224 8.79639,-19.97656 19.97863,-19.97656 h 12.35842 l -3.18482,9.76116 a 2.6460995,2.6460995 0 0 0 3.69745,3.1874 l 34.39635,-17.19946 a 2.6460995,2.6460995 0 0 0 0,-4.73253 l -34.39635,-17.19688 a 2.6460995,2.6460995 0 0 0 -0.9927,-0.27182 z"
       inkscape:export-filename="C:\Users\florager\Google Drive\rect30680.png"
       inkscape:export-xdpi="96"
       inkscape:export-ydpi="96" />
    <ellipse
       style="opacity:1;fill:#1c1c1c;fill-opacity:1;stroke:none;stroke-width:20.2706;stroke-linecap:round;stroke-linejoin:round"
       id="path971-9"
       cx="-415.26385"
       cy="-221.48204"
       rx="150"
       ry="149.99995" />
    <ellipse
       style="opacity:0.599359;fill:url(#linearGradient3397);fill-opacity:1;stroke:none;stroke-width:20.2705;stroke-linecap:round;stroke-linejoin:round"
       id="path971"
       cx="344.0069"
       cy="-313.20242"
       rx="150.00002"
       ry="149.99998"
       transform="rotate(-109.81309)" />
    <path
       id="rect30680-8-0"
       style="color:#000000;fill:#666666;fill-opacity:1;stroke-width:1.50676;stroke-linejoin:bevel;stroke-miterlimit:4;stroke-dasharray:none;paint-order:markers fill stroke"
       d="m -455.8281,-295.21165 a 3.9870568,3.9870568 0 0 0 -4.07544,5.21226 l 4.79957,14.70934 h -18.62205 c -27.54729,0 -50.03799,22.48836 -50.03799,50.03565 v 35.47655 c 0,27.54732 22.4907,50.03566 50.03799,50.03566 h 124.92638 c 27.54729,0 50.03563,-22.48834 50.03563,-50.03566 v -35.47655 c 0,-27.54729 -22.48834,-50.03565 -50.03563,-50.03565 h -19.6078 v 7.8e-4 c -5.45685,4.4e-4 -9.96665,4.50814 -9.96665,9.96509 0,5.45693 4.5098,9.96702 9.96665,9.96742 v 0.003 h 19.6078 c 16.84904,0 30.10313,13.25099 30.10313,30.10003 v 35.47647 c 0,16.84905 -13.25409,30.10316 -30.10313,30.10316 h -124.92638 c -16.84904,0 -30.10315,-13.25411 -30.10315,-30.10316 v -35.47654 c 0,-16.84905 13.25411,-30.10003 30.10315,-30.10003 h 18.62126 l -4.79878,14.7078 a 3.9870568,3.9870568 0 0 0 5.57121,4.80267 l 51.82729,-25.91559 a 3.9870568,3.9870568 0 0 0 0,-7.13083 l -51.82729,-25.9117 a 3.9870568,3.9870568 0 0 0 -1.49577,-0.40957 z"
       inkscape:export-filename="C:\Users\florager\Google Drive\rect30680.png"
       inkscape:export-xdpi="96"
       inkscape:export-ydpi="96" />
    <path
       id="rect30680-8"
       style="color:#000000;fill:#e6e6e6;fill-opacity:1;stroke-width:1.50677;stroke-linejoin:bevel;stroke-miterlimit:4;stroke-dasharray:none;paint-order:markers fill stroke"
       d="m -459.82796,-299.2117 a 3.9870567,3.9870567 0 0 0 -4.07544,5.21224 l 4.79958,14.70935 h -18.62205 c -27.5473,0 -50.03799,22.48836 -50.03799,50.03565 v 35.47656 c 0,27.5473 22.49069,50.03564 50.03799,50.03564 h 124.92639 c 27.54729,0 50.03563,-22.48834 50.03563,-50.03564 v -35.47656 c 0,-27.54729 -22.48834,-50.03565 -50.03563,-50.03565 h -19.60781 v 7.9e-4 c -5.45685,4.3e-4 -9.96666,4.50813 -9.96666,9.96508 0,5.45694 4.50981,9.96703 9.96666,9.96742 v 0.003 h 19.60781 c 16.84903,0 30.10313,13.25099 30.10313,30.10003 v 35.47647 c 0,16.84905 -13.2541,30.10316 -30.10313,30.10316 h -124.92639 c -16.84904,0 -30.10315,-13.25411 -30.10315,-30.10316 v -35.47654 c 0,-16.84905 13.25411,-30.10003 30.10315,-30.10003 h 18.62126 l -4.79879,14.70779 a 3.9870567,3.9870567 0 0 0 5.57121,4.80267 l 51.82729,-25.91558 a 3.9870567,3.9870567 0 0 0 0,-7.13083 l -51.82729,-25.9117 a 3.9870567,3.9870567 0 0 0 -1.49577,-0.40957 z"
       inkscape:export-filename="C:\Users\florager\Google Drive\rect30680.png"
       inkscape:export-xdpi="96"
       inkscape:export-ydpi="96" />
  </g>
</svg>
