<?xml version="1.0" encoding="UTF-8"?>
<!-- Created with Inkscape (http://www.inkscape.org/) -->
<svg width="296.05mm" height="296.05mm" version="1.1" viewBox="0 0 296.05 296.05" xmlns="http://www.w3.org/2000/svg" xmlns:xlink="http://www.w3.org/1999/xlink">
 <defs>
  <linearGradient id="linearGradient3397" x1="-337.09" x2="-149.75" y1="-317.5" y2="-317.5" gradientTransform="matrix(1.5803 -1.5766e-8 2.1221e-8 1.5803 210.42 528.46)" gradientUnits="userSpaceOnUse">
   <stop stop-color="#3e3e3e" offset="0"/>
   <stop stop-color="#3e3e3e" stop-opacity="0" offset="1"/>
  </linearGradient>
 </defs>
 <g transform="translate(63.828 -6.8522)">
  <ellipse cx="84.198" cy="154.88" rx="148.03" ry="148.03" fill="#1c1c1c"/>
  <ellipse transform="rotate(250.19)" cx="-174.25" cy="26.718" rx="148.03" ry="148.03" fill="url(#linearGradient3397)" opacity=".59936"/>
  <path d="m44.168 82.119a3.9346 3.9346 0 0 0-4.0218 5.1437l4.7364 14.516h-18.377c-27.185 0-49.38 22.192-49.38 49.377v35.01c0 27.185 22.195 49.377 49.38 49.377h123.28c27.185 0 49.377-22.192 49.377-49.377v-35.01c0-27.185-22.192-49.377-49.377-49.377h-19.35v7.7e-4c-5.385 4.3e-4 -9.8355 4.4488-9.8355 9.834 0 5.3851 4.4505 9.8359 9.8355 9.8363v3e-3h19.35c16.627 0 29.707 13.077 29.707 29.704v35.01c0 16.627-13.08 29.707-29.707 29.707h-123.28c-16.627 0-29.707-13.08-29.707-29.707v-35.01c0-16.627 13.08-29.704 29.707-29.704h18.376l-4.7356 14.514a3.9346 3.9346 0 0 0 5.4979 4.7395l51.145-25.575a3.9346 3.9346 0 0 0 0-7.037l-51.145-25.571a3.9346 3.9346 0 0 0-1.4761-0.40418z" color="#000000" fill="#666" stroke-linejoin="bevel" stroke-width="1.4869" style="paint-order:markers fill stroke"/>
  <path d="m40.221 78.172a3.9346 3.9346 0 0 0-4.0218 5.1437l4.7364 14.516h-18.377c-27.185 0-49.38 22.192-49.38 49.377v35.01c0 27.185 22.195 49.377 49.38 49.377h123.28c27.185 0 49.377-22.192 49.377-49.377v-35.01c0-27.185-22.192-49.377-49.377-49.377h-19.35v7.79e-4c-5.385 4.24e-4 -9.8355 4.4488-9.8355 9.834 0 5.3851 4.4505 9.8359 9.8355 9.8363v3e-3h19.35c16.627 0 29.707 13.077 29.707 29.704v35.01c0 16.627-13.08 29.707-29.707 29.707h-123.28c-16.627 0-29.707-13.08-29.707-29.707v-35.01c0-16.627 13.08-29.704 29.707-29.704h18.376l-4.7357 14.514a3.9346 3.9346 0 0 0 5.4979 4.7395l51.145-25.575a3.9346 3.9346 0 0 0 0-7.037l-51.145-25.571a3.9346 3.9346 0 0 0-1.4761-0.40418z" color="#000000" fill="#e6e6e6" stroke-linejoin="bevel" stroke-width="1.4869" style="paint-order:markers fill stroke"/>
 </g>
</svg>
