<?xml version="1.0" encoding="UTF-8" standalone="no"?>
<!-- Created with Inkscape (http://www.inkscape.org/) -->

<svg
   width="200mm"
   height="138.2041mm"
   viewBox="0 0 199.99999 138.2041"
   version="1.1"
   id="svg5"
   inkscape:version="1.1.1 (3bf5ae0d25, 2021-09-20)"
   sodipodi:docname="loop.svg"
   xmlns:inkscape="http://www.inkscape.org/namespaces/inkscape"
   xmlns:sodipodi="http://sodipodi.sourceforge.net/DTD/sodipodi-0.dtd"
   xmlns="http://www.w3.org/2000/svg"
   xmlns:svg="http://www.w3.org/2000/svg">
  <sodipodi:namedview
     id="namedview7"
     pagecolor="#ffffff"
     bordercolor="#666666"
     borderopacity="1.0"
     inkscape:pageshadow="2"
     inkscape:pageopacity="0.0"
     inkscape:pagecheckerboard="0"
     inkscape:document-units="mm"
     showgrid="false"
     inkscape:zoom="0.74118967"
     inkscape:cx="231.38477"
     inkscape:cy="368.32677"
     inkscape:window-width="1284"
     inkscape:window-height="1040"
     inkscape:window-x="164"
     inkscape:window-y="640"
     inkscape:window-maximized="0"
     inkscape:current-layer="layer1" />
  <defs
     id="defs2" />
  <g
     inkscape:label="Layer 1"
     inkscape:groupmode="layer"
     id="layer1"
     transform="translate(-35.997913,-34.793254)">
    <path
       id="rect30680"
       style="color:#000000;fill:#1c1c1c;fill-opacity:1;stroke-width:1.33935;stroke-linejoin:bevel;-inkscape-stroke:none;paint-order:markers fill stroke"
       d="m 96.385378,34.802293 a 3.5440505,3.5440505 0 0 0 -3.622603,4.633104 L 97.029056,52.51038 H 80.476123 c -24.486485,0 -44.47821,19.989642 -44.47821,44.476129 v 31.534721 c 0,24.48649 19.991725,44.47612 44.47821,44.47612 H 191.52179 c 24.48649,0 44.47612,-19.98963 44.47612,-44.47612 V 96.986509 c 0,-24.486487 -19.98963,-44.476129 -44.47612,-44.476129 h -17.42916 v 6.95e-4 c -4.85053,3.83e-4 -8.85924,4.007234 -8.85924,8.85785 0,4.850607 4.00871,8.859572 8.85924,8.859926 v 0.0021 h 17.42916 c 14.97692,0 26.75835,11.778661 26.75835,26.755582 v 31.534657 c 0,14.97692 -11.78143,26.75835 -26.75835,26.75835 H 80.476123 c -14.976921,0 -26.758356,-11.78143 -26.758356,-26.75835 V 96.986509 c 0,-14.97692 11.781435,-26.755582 26.758356,-26.755582 H 97.02836 l -4.265585,13.073601 a 3.5440505,3.5440505 0 0 0 4.952175,4.269043 l 46.06871,-23.036084 a 3.5440505,3.5440505 0 0 0 0,-6.338507 L 97.71495,35.166351 a 3.5440505,3.5440505 0 0 0 -1.329572,-0.364058 z"
       inkscape:export-filename="C:\Users\florager\Google Drive\rect30680.png"
       inkscape:export-xdpi="96"
       inkscape:export-ydpi="96" />
  </g>
</svg>
