<?xml version="1.0" encoding="UTF-8" standalone="no"?>
<!-- Created with Inkscape (http://www.inkscape.org/) -->

<svg
   width="81.938042mm"
   height="103.18805mm"
   viewBox="0 0 81.938042 103.18805"
   version="1.1"
   id="svg5"
   inkscape:version="1.1.1 (3bf5ae0d25, 2021-09-20)"
   sodipodi:docname="loopend.svg"
   xmlns:inkscape="http://www.inkscape.org/namespaces/inkscape"
   xmlns:sodipodi="http://sodipodi.sourceforge.net/DTD/sodipodi-0.dtd"
   xmlns="http://www.w3.org/2000/svg"
   xmlns:svg="http://www.w3.org/2000/svg">
  <sodipodi:namedview
     id="namedview7"
     pagecolor="#ffffff"
     bordercolor="#666666"
     borderopacity="1.0"
     inkscape:pageshadow="2"
     inkscape:pageopacity="0.0"
     inkscape:pagecheckerboard="0"
     inkscape:document-units="mm"
     showgrid="false"
     inkscape:zoom="0.74118967"
     inkscape:cx="31.705785"
     inkscape:cy="313.0103"
     inkscape:window-width="1284"
     inkscape:window-height="1040"
     inkscape:window-x="1920"
     inkscape:window-y="841"
     inkscape:window-maximized="0"
     inkscape:current-layer="layer1" />
  <defs
     id="defs2" />
  <g
     inkscape:label="Layer 1"
     inkscape:groupmode="layer"
     id="layer1"
     transform="translate(-26.498528,-65.84948)">
    <path
       id="path41646"
       style="color:#000000;fill:#1c1c1c;fill-opacity:1;stroke-width:1;stroke-linejoin:bevel;-inkscape-stroke:none;paint-order:markers fill stroke"
       d="m 63.3494,169.03078 a 2.6460995,2.6460995 0 0 0 2.70475,-3.45923 l -3.18534,-9.76219 h 12.35894 c 18.28238,0 33.20882,-14.9249 33.20882,-33.20728 V 99.05727 c 0,-18.28238 -14.92644,-33.20728 -33.20882,-33.20728 H 33.78738 a 6.6145835,6.6145835 0 0 0 -0.014,-5.1e-4 6.6145835,6.6145835 0 0 0 -6.61458,6.61458 6.6145835,6.6145835 0 0 0 6.61458,6.61458 H 75.2277 c 11.18224,0 19.97862,8.79639 19.97862,19.97863 v 23.54481 c 0,11.18224 -8.79638,19.97656 -19.97862,19.97656 H 62.86928 l 3.18482,-9.76116 a 2.6460995,2.6460995 0 0 0 -3.69745,-3.1874 L 27.9603,146.82954 a 2.6460995,2.6460995 0 0 0 0,4.73253 l 34.39635,17.19689 a 2.6460995,2.6460995 0 0 0 0.9927,0.27182 z" />
  </g>
</svg>
