<?xml version="1.0" encoding="UTF-8" standalone="no"?>
<!-- Created with Inkscape (http://www.inkscape.org/) -->

<svg
   width="100.00004mm"
   height="125.93432mm"
   viewBox="0 0 100.00004 125.93432"
   version="1.1"
   id="svg5"
   inkscape:version="1.1.1 (3bf5ae0d25, 2021-09-20)"
   sodipodi:docname="loopstart.svg"
   xmlns:inkscape="http://www.inkscape.org/namespaces/inkscape"
   xmlns:sodipodi="http://sodipodi.sourceforge.net/DTD/sodipodi-0.dtd"
   xmlns="http://www.w3.org/2000/svg"
   xmlns:svg="http://www.w3.org/2000/svg">
  <sodipodi:namedview
     id="namedview7"
     pagecolor="#ffffff"
     bordercolor="#666666"
     borderopacity="1.0"
     inkscape:pageshadow="2"
     inkscape:pageopacity="0.0"
     inkscape:pagecheckerboard="0"
     inkscape:document-units="mm"
     showgrid="false"
     inkscape:zoom="0.74118967"
     inkscape:cx="-116.70427"
     inkscape:cy="292.09797"
     inkscape:window-width="1920"
     inkscape:window-height="1017"
     inkscape:window-x="-8"
     inkscape:window-y="632"
     inkscape:window-maximized="1"
     inkscape:current-layer="layer1" />
  <defs
     id="defs2" />
  <g
     inkscape:label="Layer 1"
     inkscape:groupmode="layer"
     id="layer1"
     transform="translate(-65.76538,-71.204054)">
    <path
       id="path40739"
       style="color:#000000;fill:#1c1c1c;fill-opacity:1;stroke-width:1.22044;stroke-linejoin:bevel;-inkscape-stroke:none;paint-order:markers fill stroke"
       d="m 120.79135,71.212291 a 3.2293928,3.2293928 0 0 0 -3.30098,4.221755 l 3.8875,11.914123 h -15.08328 c -22.312458,0 -40.52921,18.214861 -40.52921,40.527321 v 28.73493 c 0,22.31245 18.216752,40.52731 40.52921,40.52731 h 50.57528 a 8.07267,8.07267 0 0 0 0.017,6.4e-4 8.07267,8.07267 0 0 0 8.07266,-8.07267 8.07267,8.07267 0 0 0 -8.07266,-8.07267 h -50.59225 c -13.647198,0 -24.382609,-10.73542 -24.382609,-24.38261 v -28.73493 c 0,-13.6472 10.735411,-24.38009 24.382609,-24.38009 h 15.08265 l -3.88687,11.91286 a 3.2293928,3.2293928 0 0 0 4.5125,3.89002 l 41.97852,-20.990831 a 3.2293928,3.2293928 0 0 0 0,-5.775743 L 122.0029,71.544026 a 3.2293928,3.2293928 0 0 0 -1.21152,-0.331735 z" />
  </g>
</svg>
