<?xml version="1.0" encoding="UTF-8" standalone="no"?>
<!-- Created with Inkscape (http://www.inkscape.org/) -->

<svg
   width="200mm"
   height="137.78812mm"
   viewBox="0 0 200 137.78811"
   version="1.1"
   id="svg5"
   inkscape:version="1.1.1 (3bf5ae0d25, 2021-09-20)"
   sodipodi:docname="loopwithstart.svg"
   xmlns:inkscape="http://www.inkscape.org/namespaces/inkscape"
   xmlns:sodipodi="http://sodipodi.sourceforge.net/DTD/sodipodi-0.dtd"
   xmlns="http://www.w3.org/2000/svg"
   xmlns:svg="http://www.w3.org/2000/svg">
  <sodipodi:namedview
     id="namedview7"
     pagecolor="#ffffff"
     bordercolor="#666666"
     borderopacity="1.0"
     inkscape:pageshadow="2"
     inkscape:pageopacity="0.0"
     inkscape:pagecheckerboard="0"
     inkscape:document-units="mm"
     showgrid="false"
     inkscape:zoom="0.74118967"
     inkscape:cx="146.38628"
     inkscape:cy="325.15294"
     inkscape:window-width="1284"
     inkscape:window-height="1040"
     inkscape:window-x="369"
     inkscape:window-y="640"
     inkscape:window-maximized="0"
     inkscape:current-layer="layer1" />
  <defs
     id="defs2" />
  <g
     inkscape:label="Layer 1"
     inkscape:groupmode="layer"
     id="layer1"
     transform="translate(-21.136012,-24.083663)">
    <path
       id="path41616"
       style="color:#000000;fill:#6b7878;fill-opacity:1;stroke-width:1.33531;stroke-linejoin:bevel;-inkscape-stroke:none;paint-order:markers fill stroke"
       d="m 81.944948,24.092675 a 3.5333515,3.5333515 0 0 0 -3.611668,4.619117 l 4.253403,13.03552 H 66.08372 c -24.412564,0 -44.343936,19.929289 -44.343936,44.341853 V 117.5287 c 0,24.41256 19.931372,44.34185 44.343936,44.34185 h 110.71044 c 24.41256,0 44.34185,-19.92929 44.34185,-44.34185 V 86.089165 c 0,-24.412564 -19.92929,-44.341853 -44.34185,-44.341853 h -17.37654 v 6.94e-4 c -4.83589,3.74e-4 -8.8325,3.995128 -8.8325,8.83111 0,4.835956 3.99661,8.83282 8.8325,8.833181 v 0.0027 h 17.37654 c 14.9317,0 26.67756,11.743091 26.67756,26.674799 v 31.439464 c 0,14.93171 -11.74586,26.67756 -26.67756,26.67756 H 66.08372 c -14.931707,0 -26.677576,-11.74585 -26.677576,-26.67756 V 86.0897 c 0,-14.931709 11.745869,-26.6748 26.677576,-26.6748 H 82.585988 L 78.33328,72.449032 a 3.5333515,3.5333515 0 0 0 4.937227,4.256153 L 129.20015,53.738636 a 3.5333515,3.5333515 0 0 0 0,-6.31936 L 83.270507,24.456172 a 3.5333515,3.5333515 0 0 0 -1.325559,-0.362963 z"
       inkscape:export-filename="C:\Users\florager\Google Drive\rect30680.png"
       inkscape:export-xdpi="96"
       inkscape:export-ydpi="96" />
    <path
       id="path40739"
       style="color:#000000;fill:#1c1c1c;fill-opacity:1;stroke-width:1.34201;stroke-linejoin:bevel;-inkscape-stroke:none;paint-order:markers fill stroke"
       d="m 81.946991,24.093208 a 3.568907,3.5333515 0 0 0 -3.648015,4.619117 l 4.296213,13.035507 h -16.66902 c -24.658235,0 -44.790157,19.929303 -44.790157,44.341868 v 31.43952 c 0,24.41258 20.131922,44.34186 44.790157,44.34186 h 55.892381 a 8.9213701,8.8324905 0 0 0 0.0187,7e-4 8.9213701,8.8324905 0 0 0 8.92136,-8.83251 8.9213701,8.8324905 0 0 0 -8.92136,-8.83248 H 65.926115 c -15.08197,0 -26.946013,-11.74587 -26.946013,-26.67757 V 86.0897 c 0,-14.931709 11.864043,-26.674813 26.946013,-26.674813 h 16.668313 l -4.295506,13.034132 a 3.568907,3.5333515 0 0 0 4.986914,4.256152 L 129.67765,53.738636 a 3.568907,3.5333515 0 0 0 0,-6.319373 L 83.285836,24.456167 a 3.568907,3.5333515 0 0 0 -1.338898,-0.362959 z" />
  </g>
</svg>
