<?xml version="1.0" encoding="UTF-8" standalone="no"?>
<!-- Created with Inkscape (http://www.inkscape.org/) -->

<svg
   width="210mm"
   height="297mm"
   viewBox="0 0 210 297"
   version="1.1"
   id="svg5"
   inkscape:version="1.1.1 (3bf5ae0d25, 2021-09-20)"
   sodipodi:docname="loop.svg"
   xmlns:inkscape="http://www.inkscape.org/namespaces/inkscape"
   xmlns:sodipodi="http://sodipodi.sourceforge.net/DTD/sodipodi-0.dtd"
   xmlns="http://www.w3.org/2000/svg"
   xmlns:svg="http://www.w3.org/2000/svg">
  <sodipodi:namedview
     id="namedview7"
     pagecolor="#ffffff"
     bordercolor="#666666"
     borderopacity="1.0"
     inkscape:pageshadow="2"
     inkscape:pageopacity="0.0"
     inkscape:pagecheckerboard="0"
     inkscape:document-units="mm"
     showgrid="false"
     inkscape:zoom="0.74118967"
     inkscape:cx="397.33419"
     inkscape:cy="561.25984"
     inkscape:window-width="1284"
     inkscape:window-height="1040"
     inkscape:window-x="1553"
     inkscape:window-y="942"
     inkscape:window-maximized="0"
     inkscape:current-layer="layer1" />
  <defs
     id="defs2" />
  <g
     inkscape:label="Layer 1"
     inkscape:groupmode="layer"
     id="layer1">
    <path
       id="rect30680"
       style="color:#000000;fill:#1c1c1c;fill-opacity:1;stroke-width:1;stroke-linejoin:bevel;-inkscape-stroke:none;paint-order:markers fill stroke"
       d="m 81.085093,34.800003 a 2.6460995,2.6460995 0 0 0 -2.70475,3.459221 l 3.18534,9.762193 h -12.35894 c -18.28238,0 -33.20883,14.924895 -33.20883,33.207276 v 23.544817 c 0,18.28238 14.92645,33.20727 33.20883,33.20727 h 82.910187 c 18.28238,0 33.20727,-14.92489 33.20727,-33.20727 V 81.228693 c 0,-18.282381 -14.92489,-33.207276 -33.20727,-33.207276 h -13.01316 v 5.19e-4 c -3.62156,2.86e-4 -6.61459,2.991927 -6.61459,6.613549 0,3.621616 2.99303,6.614835 6.61459,6.6151 v 0.0016 h 13.01316 c 11.18224,0 19.97862,8.794318 19.97862,19.976558 v 23.544767 c 0,11.18224 -8.79638,19.97862 -19.97862,19.97862 H 69.206743 c -11.18224,0 -19.97863,-8.79638 -19.97863,-19.97862 V 81.228693 c 0,-11.182239 8.79639,-19.976558 19.97863,-19.976558 h 12.35842 l -3.18482,9.761161 a 2.6460995,2.6460995 0 0 0 3.69745,3.187402 L 116.47414,57.001233 a 2.6460995,2.6460995 0 0 0 0,-4.732528 L 82.077793,35.07182 a 2.6460995,2.6460995 0 0 0 -0.9927,-0.271817 z"
       inkscape:export-filename="C:\Users\florager\Google Drive\rect30680.png"
       inkscape:export-xdpi="96"
       inkscape:export-ydpi="96" />
  </g>
</svg>
