<?xml version="1.0" encoding="UTF-8" standalone="no"?>
<!-- Created with Inkscape (http://www.inkscape.org/) -->

<svg
   width="100mm"
   height="125.93423mm"
   viewBox="0 0 100 125.93424"
   version="1.1"
   id="svg5"
   inkscape:version="1.1.1 (3bf5ae0d25, 2021-09-20)"
   sodipodi:docname="loopend.svg"
   xmlns:inkscape="http://www.inkscape.org/namespaces/inkscape"
   xmlns:sodipodi="http://sodipodi.sourceforge.net/DTD/sodipodi-0.dtd"
   xmlns="http://www.w3.org/2000/svg"
   xmlns:svg="http://www.w3.org/2000/svg">
  <sodipodi:namedview
     id="namedview7"
     pagecolor="#ffffff"
     bordercolor="#666666"
     borderopacity="1.0"
     inkscape:pageshadow="2"
     inkscape:pageopacity="0.0"
     inkscape:pagecheckerboard="0"
     inkscape:document-units="mm"
     showgrid="false"
     inkscape:zoom="0.74118967"
     inkscape:cx="172.02075"
     inkscape:cy="393.96124"
     inkscape:window-width="1080"
     inkscape:window-height="1040"
     inkscape:window-x="282"
     inkscape:window-y="681"
     inkscape:window-maximized="0"
     inkscape:current-layer="layer1" />
  <defs
     id="defs2" />
  <g
     inkscape:label="Layer 1"
     inkscape:groupmode="layer"
     id="layer1"
     transform="translate(-26.498527,-65.84948)">
    <path
       id="path41646"
       style="color:#000000;fill:#1c1c1c;fill-opacity:1;stroke-width:1.22043;stroke-linejoin:bevel;-inkscape-stroke:none;paint-order:markers fill stroke"
       d="m 71.472598,191.77548 a 3.2293907,3.2293907 0 0 0 3.300969,-4.22176 l -3.887498,-11.91411 h 15.083275 c 22.312446,0 40.529186,-18.21486 40.529186,-40.52731 v -28.73489 c 0,-22.312447 -18.21674,-40.527308 -40.529186,-40.527308 H 35.394093 a 8.0726649,8.0726649 0 0 0 -0.01709,-6.22e-4 8.0726649,8.0726649 0 0 0 -8.07266,8.072661 8.0726649,8.0726649 0 0 0 8.07266,8.07266 h 50.592276 c 13.64719,0 24.382601,10.735417 24.382601,24.382609 v 28.73489 c 0,13.64719 -10.735411,24.38008 -24.382601,24.38008 h -15.08264 l 3.886863,-11.91285 a 3.2293907,3.2293907 0 0 0 -4.512495,-3.89002 l -41.978486,20.99082 a 3.2293907,3.2293907 0 0 0 0,5.77574 l 41.978486,20.98767 a 3.2293907,3.2293907 0 0 0 1.211526,0.33174 z" />
  </g>
</svg>
