<?xml version="1.0" encoding="UTF-8" standalone="no"?>
<!-- Created with Inkscape (http://www.inkscape.org/) -->

<svg
   width="200mm"
   height="214.61169mm"
   viewBox="0 0 200 214.61169"
   version="1.1"
   id="svg5"
   inkscape:version="1.1.1 (3bf5ae0d25, 2021-09-20)"
   sodipodi:docname="reset.svg"
   xmlns:inkscape="http://www.inkscape.org/namespaces/inkscape"
   xmlns:sodipodi="http://sodipodi.sourceforge.net/DTD/sodipodi-0.dtd"
   xmlns="http://www.w3.org/2000/svg"
   xmlns:svg="http://www.w3.org/2000/svg">
  <sodipodi:namedview
     id="namedview7"
     pagecolor="#ffffff"
     bordercolor="#666666"
     borderopacity="1.0"
     inkscape:pageshadow="2"
     inkscape:pageopacity="0.0"
     inkscape:pagecheckerboard="0"
     inkscape:document-units="mm"
     showgrid="false"
     inkscape:zoom="0.74118967"
     inkscape:cx="301.54225"
     inkscape:cy="360.90627"
     inkscape:window-width="1920"
     inkscape:window-height="1017"
     inkscape:window-x="-8"
     inkscape:window-y="632"
     inkscape:window-maximized="1"
     inkscape:current-layer="layer1" />
  <defs
     id="defs2" />
  <g
     inkscape:label="Layer 1"
     inkscape:groupmode="layer"
     id="layer1"
     transform="translate(-25.308037,-53.026913)">
    <path
       id="path1100"
       style="color:#000000;fill:#1c1c1c;stroke-width:1.33332;stroke-linecap:round;stroke-linejoin:round;-inkscape-stroke:none"
       d="m 149.09236,53.026913 c -0.0768,0 -0.15413,0.0035 -0.2322,0.0088 -0.46064,0.03316 -0.9104,0.156137 -1.32361,0.362404 L 101.6753,76.327055 c -2.598675,1.300641 -2.598675,5.009316 0,6.309957 l 45.86125,22.932378 c 2.80096,1.39776 5.89961,-1.27348 4.92988,-4.24983 l -3.92941,-12.042534 c 34.6015,10.237247 58.50047,41.994194 58.50047,78.362614 4e-5,45.24666 -36.48175,81.72848 -81.72843,81.72844 -45.246692,4e-5 -81.730518,-36.48178 -81.730518,-81.72844 3.6e-5,-18.68116 6.397164,-36.79561 18.129961,-51.33271 a 9.1341621,9.1341621 0 0 0 -1.372502,-12.84318 9.1341621,9.1341621 0 0 0 -12.843857,1.36979 c -14.352952,17.78347 -22.184071,39.95311 -22.184107,62.8061 0,55.1196 44.881393,99.99896 100.001023,99.99896 55.11962,0 99.99898,-44.87936 99.99898,-99.99896 -4e-5,-45.83606 -31.27231,-85.890771 -75.73891,-97.011399 a 9.1341621,9.1341621 0 0 0 -1.28156,-0.171554 l 4.17957,-12.810096 c 0.72763,-2.232847 -0.88239,-4.490245 -3.14534,-4.616397 v 0.0035 c -0.0755,-0.0045 -0.15187,-0.0064 -0.22873,-0.0056 z" />
  </g>
</svg>
