<?xml version="1.0" encoding="UTF-8" standalone="no"?>
<!-- Created with Inkscape (http://www.inkscape.org/) -->

<svg
   width="150.00171mm"
   height="160.9606mm"
   viewBox="0 0 150.00171 160.9606"
   version="1.1"
   id="svg5"
   inkscape:version="1.1.1 (3bf5ae0d25, 2021-09-20)"
   sodipodi:docname="reset.svg"
   xmlns:inkscape="http://www.inkscape.org/namespaces/inkscape"
   xmlns:sodipodi="http://sodipodi.sourceforge.net/DTD/sodipodi-0.dtd"
   xmlns="http://www.w3.org/2000/svg"
   xmlns:svg="http://www.w3.org/2000/svg">
  <sodipodi:namedview
     id="namedview7"
     pagecolor="#ffffff"
     bordercolor="#666666"
     borderopacity="1.0"
     inkscape:pageshadow="2"
     inkscape:pageopacity="0.0"
     inkscape:pagecheckerboard="0"
     inkscape:document-units="mm"
     showgrid="false"
     inkscape:zoom="0.74118967"
     inkscape:cx="301.54225"
     inkscape:cy="360.90627"
     inkscape:window-width="1920"
     inkscape:window-height="1017"
     inkscape:window-x="-8"
     inkscape:window-y="632"
     inkscape:window-maximized="1"
     inkscape:current-layer="layer1" />
  <defs
     id="defs2" />
  <g
     inkscape:label="Layer 1"
     inkscape:groupmode="layer"
     id="layer1"
     transform="translate(-25.308037,-53.026913)">
    <path
       id="path1100"
       style="color:#000000;fill:#1c1c1c;stroke-width:1;stroke-linecap:round;stroke-linejoin:round;-inkscape-stroke:none"
       d="m 118.14734,53.026913 c -0.0576,0 -0.1156,0.0026 -0.17415,0.0066 -0.34549,0.02487 -0.68281,0.117104 -0.99272,0.271806 l -34.396333,17.1969 c -1.949027,0.975492 -1.949027,3.75703 0,4.732522 l 34.396333,17.199478 c 2.10074,1.048332 4.42476,-0.95512 3.69745,-3.187409 l -2.94709,-9.032002 c 25.95142,7.678023 43.87585,31.496002 43.87585,58.772632 3e-5,33.93538 -27.36162,61.29706 -61.29702,61.29703 -33.935406,3e-5 -61.298588,-27.36165 -61.298588,-61.29703 2.7e-5,-14.01103 4.797928,-27.59702 13.597626,-38.49997 a 6.8506998,6.8506998 0 0 0 -1.029388,-9.632496 6.8506998,6.8506998 0 0 0 -9.633003,1.02735 C 31.18147,105.22008 25.308064,121.8475 25.308037,138.98744 c 0,41.34017 33.661429,75.00008 75.001623,75.00008 41.34019,0 75.00009,-33.65991 75.00009,-75.00008 -3e-5,-34.37744 -23.4545,-64.418814 -56.80483,-72.75938 a 6.8506998,6.8506998 0 0 0 -0.96118,-0.128667 l 3.13471,-9.607682 c 0.54573,-1.674654 -0.6618,-3.367722 -2.35903,-3.462337 v 0.0026 c -0.0566,-0.0034 -0.1139,-0.0048 -0.17155,-0.0042 z" />
  </g>
</svg>
